# xmcd CD database file
#
# Track frame offsets:
#	150
#	40417
#	58290
#	90555
#	122887
#	155120
#	194185
#	214062
#	243312
#	275310
#
# Disc length: 4340 seconds
#
# Revision: 0
# Processed by: cddbd v1.5.1PL0 Copyright (c) Steve Scherf et al.
# Submitted via: CDex 1.51
#
DISCID=9b10f20a
DTITLE=Various Artist - The Dawn of a New Age Disc 2
DYEAR=1999
DGENRE=New Age
TTITLE0=Alien Mutation - Sea of Tranquility
TTITLE1=Wadaba - The Green Man
TTITLE2=Crystal Moon - Temple
TTITLE3=Curly Wurly Spirits - Tibetan Chant of Purity
TTITLE4=The Dolphines - Indian Paradise
TTITLE5=Crystal Keys - Enlightenment
TTITLE6=Crystal Moon - Clouds
TTITLE7=Gondwana - Ananada
TTITLE8=Twilight Pilot - The Garedn of Angel Adonis
TTITLE9=Crystal Moon - Silent Pool
EXTD=YEAR: 1999
EXTT0=
EXTT1=
EXTT2=
EXTT3=
EXTT4=
EXTT5=
EXTT6=
EXTT7=
EXTT8=
EXTT9=
PLAYORDER=
